<svg width="17" height="18" viewBox="0 0 17 18" fill="none" xmlns="http://www.w3.org/2000/svg">
<path d="M10.981 9.92974C10.981 9.72281 11.1489 9.55518 11.356 9.55518L12.6643 9.55518C12.8712 9.55518 13.0391 9.72281 13.0391 9.92974L13.0391 11.2379C13.0391 11.4451 12.8712 11.6128 12.6643 11.6128L11.356 11.6128C11.1489 11.6128 10.981 11.4451 10.981 11.2379L10.981 9.92974Z" fill="white"/>
<path d="M7.7117 9.92974C7.7117 9.72281 7.87957 9.55518 8.08626 9.55518L9.3948 9.55518C9.60166 9.55518 9.76953 9.72281 9.76953 9.92974L9.76953 11.2379C9.76953 11.4451 9.60166 11.6128 9.3948 11.6128L8.08626 11.6128C7.87957 11.6128 7.7117 11.4451 7.7117 11.2379L7.7117 9.92974Z" fill="white"/>
<path d="M4.44001 9.92974C4.44001 9.72281 4.60788 9.55518 4.81474 9.55518L6.12311 9.55518C6.33021 9.55518 6.49805 9.72281 6.49805 9.92974L6.49805 11.2379C6.49805 11.4451 6.33021 11.6128 6.12311 11.6128L4.81474 11.6128C4.60788 11.6128 4.44001 11.4451 4.44001 11.2379L4.44001 9.92974Z" fill="white"/>
<path d="M10.981 13.2004C10.981 12.9932 11.1489 12.8257 11.356 12.8257L12.6643 12.8257C12.8712 12.8257 13.0391 12.9932 13.0391 13.2004L13.0391 14.5084C13.0391 14.7155 12.8712 14.8831 12.6643 14.8831L11.356 14.8831C11.1489 14.8831 10.981 14.7154 10.981 14.5084L10.981 13.2004Z" fill="white"/>
<path d="M7.7117 13.2004C7.7117 12.9932 7.87957 12.8257 8.08626 12.8257L9.3948 12.8257C9.60166 12.8257 9.76953 12.9932 9.76953 13.2004L9.76953 14.5084C9.76953 14.7155 9.60166 14.8831 9.3948 14.8831L8.08626 14.8831C7.87957 14.8831 7.7117 14.7154 7.7117 14.5084L7.7117 13.2004Z" fill="white"/>
<path d="M4.44001 13.2004C4.44001 12.9932 4.60788 12.8257 4.81457 12.8257L6.12311 12.8257C6.33021 12.8257 6.49805 12.9932 6.49805 13.2004L6.49805 14.5084C6.49805 14.7155 6.33021 14.8831 6.12311 14.8831L4.81457 14.8831C4.60788 14.8831 4.44001 14.7154 4.44001 14.5084L4.44001 13.2004Z" fill="white"/>
<path d="M2.10188 2.6561L2.10188 4.65428C2.10188 5.55743 2.83455 6.28524 3.73757 6.28524L4.76942 6.28524C5.67251 6.28524 6.41489 5.55743 6.41489 4.65428L6.41489 2.64893L11.0657 2.64893L11.0657 4.65428C11.0657 5.55743 11.808 6.28523 12.711 6.28523L13.743 6.28523C14.646 6.28523 15.3787 5.55743 15.3787 4.65428L15.3787 2.6561C16.1679 2.67989 16.8164 3.33294 16.8164 4.13563L16.8164 15.8459C16.8164 16.6637 16.1536 17.3353 15.3358 17.3353L2.14479 17.3353C1.32823 17.3353 0.664174 16.6623 0.664174 15.8459L0.664173 4.13563C0.664173 3.33294 1.31266 2.67989 2.10188 2.6561ZM2.58114 15.1167C2.58114 15.4701 2.86768 15.7568 3.22123 15.7568L14.2875 15.7568C14.6411 15.7568 14.9276 15.4701 14.9276 15.1167L14.9276 9.06789C14.9276 8.71435 14.6411 8.42763 14.2875 8.42763L3.22126 8.42763C2.86772 8.42763 2.58117 8.71435 2.58117 9.06789L2.58114 15.1167Z" fill="white"/>
<path d="M13.7457 5.21407L12.725 5.21407C12.4152 5.21407 12.164 4.96325 12.164 4.65346L12.164 1.3777C12.164 1.06788 12.4152 0.816895 12.725 0.816895L13.7457 0.816895C14.0555 0.816895 14.3066 1.06788 14.3066 1.3777L14.3066 4.65346C14.3066 4.96325 14.0555 5.21407 13.7457 5.21407Z" fill="white"/>
<path d="M4.78281 5.21407L3.76216 5.21407C3.45257 5.21407 3.20139 4.96325 3.20139 4.65346L3.20139 1.3777C3.20135 1.06788 3.45254 0.816895 3.76216 0.816895L4.78281 0.816895C5.09257 0.816895 5.34375 1.06788 5.34375 1.3777L5.34375 4.65346C5.34375 4.96325 5.09257 5.21407 4.78281 5.21407Z" fill="white"/>
</svg>
