<svg width="18" height="16" viewBox="0 0 18 16" fill="none" xmlns="http://www.w3.org/2000/svg">
<path d="M16.9286 9.64568L2.40524 15.672C1.7934 15.9259 1.10216 15.8142 0.601347 15.3807C0.10053 14.947 -0.108938 14.2789 0.054755 13.637L1.34746 8.56761H7.67671C7.96795 8.56761 8.20411 8.33149 8.20411 8.04021C8.20411 7.74897 7.96799 7.51282 7.67671 7.51282H1.34746L0.054755 2.44343C-0.108938 1.80153 0.100495 1.1334 0.601347 0.6998C1.10318 0.26536 1.79448 0.155036 2.40527 0.40845L16.9286 6.43475C17.5898 6.70912 18.0006 7.3243 18.0006 8.04021C18.0006 8.75612 17.5898 9.37134 16.9286 9.64568Z" fill="white"/>
</svg>
