<svg width="14" height="20" viewBox="0 0 14 20" fill="none" xmlns="http://www.w3.org/2000/svg">
<path d="M13.2501 9.0001C13.4314 9.00011 13.6065 9.06575 13.7431 9.18487C13.8797 9.304 13.9685 9.46855 13.9932 9.64811L14.0002 9.75011V10.2501C14.0003 11.9537 13.3563 13.5944 12.1973 14.843C11.0383 16.0916 9.45 16.8557 7.75109 16.9822L7.75009 19.2502C7.75003 19.4402 7.67784 19.6232 7.54811 19.762C7.41838 19.9009 7.24078 19.9853 7.0512 19.9983C6.86162 20.0112 6.67418 19.9517 6.52677 19.8318C6.37937 19.7119 6.28297 19.5405 6.25707 19.3522L6.25007 19.2502V16.9822C4.59157 16.859 3.03691 16.1279 1.88423 14.9291C0.731558 13.7303 0.0620141 12.1482 0.00400023 10.4861L0 10.2501L0 9.75011C5.82432e-05 9.56009 0.0722452 9.37717 0.201975 9.23831C0.331704 9.09946 0.509304 9.01503 0.698888 9.00208C0.888472 8.98913 1.0759 9.04862 1.22331 9.16854C1.37072 9.28846 1.46712 9.45986 1.49302 9.64811L1.50002 9.75011V10.2501C1.4999 11.6052 2.02374 12.9078 2.96197 13.8856C3.9002 14.8633 5.18014 15.4404 6.53407 15.4962L6.75008 15.5002H7.25008C8.60516 15.5003 9.90781 14.9765 10.8855 14.0382C11.8633 13.1 12.4404 11.8201 12.4961 10.4661L12.5001 10.2501V9.75011C12.5001 9.5512 12.5792 9.36043 12.7198 9.21978C12.8605 9.07912 13.0512 9.0001 13.2501 9.0001ZM7.00008 0C8.06096 0 9.07838 0.421432 9.82854 1.17159C10.5787 1.92174 11.0001 2.93917 11.0001 4.00005L11.0001 10.0001C11.0001 11.061 10.5787 12.0784 9.82854 12.8286C9.07838 13.5787 8.06096 14.0002 7.00008 14.0002C5.9392 14.0002 4.92177 13.5787 4.17162 12.8286C3.42147 12.0784 3.00003 11.061 3.00003 10.0001L3.00003 4.00005C3.00003 2.93917 3.42147 1.92174 4.17162 1.17159C4.92177 0.421432 5.9392 0 7.00008 0Z" fill="white"/>
</svg>
