<svg width="12" height="19" viewBox="0 0 12 19" fill="none" xmlns="http://www.w3.org/2000/svg">
<path d="M1.5 6.228L1.5 12.7C1.5 13.973 1.97411 15.1939 2.81802 16.0941C3.66193 16.9943 4.80653 17.5 6 17.5C7.19347 17.5 8.33807 16.9943 9.18198 16.0941C10.0259 15.1939 10.5 13.973 10.5 12.7L10.5 4.7C10.5 3.85131 10.1839 3.03737 9.62132 2.43726C9.05871 1.83714 8.29565 1.5 7.5 1.5C6.70435 1.5 5.94129 1.83714 5.37868 2.43726C4.81607 3.03737 4.5 3.85131 4.5 4.7L4.5 12.0456C4.5 12.2557 4.5388 12.4638 4.61418 12.6579C4.68956 12.852 4.80005 13.0284 4.93934 13.177C5.07863 13.3255 5.24399 13.4434 5.42598 13.5238C5.60796 13.6042 5.80302 13.6456 6 13.6456V13.6456C6.39782 13.6456 6.77936 13.477 7.06066 13.177C7.34196 12.8769 7.5 12.4699 7.5 12.0456L7.5 6.3" stroke="white" stroke-width="1.2" stroke-linecap="round" stroke-linejoin="round"/>
</svg>
