<svg width="18" height="13" viewBox="0 0 18 13" fill="none" xmlns="http://www.w3.org/2000/svg">
<path d="M12.0357 12.5L1.71428 12.5C1.39224 12.5 1.08338 12.3736 0.855654 12.1485C0.627931 11.9235 0.499998 11.6183 0.499998 11.3L0.5 1.7C0.5 1.38174 0.627933 1.07652 0.855656 0.851472C1.08338 0.626428 1.39224 0.5 1.71429 0.5L12.0357 0.500002C12.3578 0.500002 12.6666 0.62643 12.8943 0.851474C13.1221 1.07652 13.25 1.38174 13.25 1.7L13.25 4.136L16.5407 1.814C16.6313 1.75024 16.7379 1.71231 16.8489 1.70434C16.9598 1.69638 17.0709 1.71869 17.1698 1.76884C17.2688 1.81899 17.352 1.89506 17.4102 1.98873C17.4684 2.0824 17.4995 2.19007 17.5 2.3L17.5 10.7C17.4995 10.8099 17.4684 10.9176 17.4102 11.0113C17.352 11.1049 17.2688 11.181 17.1698 11.2312C17.0709 11.2813 16.9598 11.3036 16.8489 11.2957C16.7379 11.2877 16.6313 11.2498 16.5407 11.186L13.25 8.864L13.25 11.3C13.25 11.6183 13.1221 11.9235 12.8943 12.1485C12.6666 12.3736 12.3578 12.5 12.0357 12.5Z" fill="white"/>
</svg>
